# xmcd
#
# Track frame offsets:
#	150
#	15884
#	30389
#	48295
#	59848
#	75064
#	92310
#	108022
#	126857
#	140818
#	155333
#	169687
#	181945
#	195808
#	211830
#	221900
#	235606
#	248289
#	268848
#	279458
#	290172
#	303165
#	318448
#	329215
#
# Disc length: 4637 seconds
#
# Revision: 0
# Processed by: cddbd v1.5.2PL0 Copyright (c) Steve Scherf et al.
# Submitted via: EasyCDDAExtractor 10.0.2.1
#
DISCID=40121b18
DTITLE=Dusty Springfield - Dusty - The Legend Of Dusty Springfield - CD4
DYEAR=1994
DGENRE=Pop
TTITLE0=Goin' Back
TTITLE1=I Think It's Going To Rain Today
TTITLE2=Tupelo Honey
TTITLE3=Chained To A Memory
TTITLE4=Who Can I Turn To
TTITLE5=If You Go Away
TTITLE6=What Are You Doing The Rest Of Your Life
TTITLE7=Love Me By Name
TTITLE8=There Is No Easy Way Down
TTITLE9=Never Love Again
TTITLE10=I Fall In Love Again
TTITLE11=That's How Heartaches Are Made
TTITLE12=I Don't Wanna Hear It Any More
TTITLE13=I Wish I'd Never Loved You
TTITLE14=Just A Little Lovin'
TTITLE15=Who Will Take My Place
TTITLE16=I'd Rather Leave While I'm In Love
TTITLE17=Sandra
TTITLE18=I've Been Wrong Before
TTITLE19=If It Hadn't Been For You
TTITLE20=I Had A Talk With My Man Last Night
TTITLE21=The Second Time Around
TTITLE22=(They Long To Be) Close To You
TTITLE23=The Look Of Love (Casino Royale)
EXTD=
EXTT0=
EXTT1=
EXTT2=
EXTT3=
EXTT4=
EXTT5=
EXTT6=
EXTT7=
EXTT8=
EXTT9=
EXTT10=
EXTT11=
EXTT12=
EXTT13=
EXTT14=
EXTT15=
EXTT16=
EXTT17=
EXTT18=
EXTT19=
EXTT20=
EXTT21=
EXTT22=
EXTT23=
PLAYORDER=
